<?xml version="1.0" encoding="utf-8"?>
<!-- Generator: Adobe Illustrator 24.3.0, SVG Export Plug-In . SVG Version: 6.00 Build 0)  -->
<svg version="1.1" id="Layer_1" xmlns="http://www.w3.org/2000/svg" xmlns:xlink="http://www.w3.org/1999/xlink" x="0px" y="0px"
	 viewBox="0 0 1920 1080" style="enable-background:new 0 0 1920 1080;" xml:space="preserve">
<style type="text/css">
	.st0{fill:url(#SVGID_1_);}
	.st1{fill:url(#SVGID_2_);}
	.st2{fill:url(#SVGID_3_);}
	.st3{fill:url(#SVGID_4_);}
	.st4{fill:url(#SVGID_5_);}
	.st5{fill:url(#SVGID_6_);}
	.st6{fill:url(#SVGID_7_);}
	.st7{fill:url(#SVGID_8_);}
	.st8{fill:url(#SVGID_9_);}
	.st9{fill:url(#SVGID_10_);}
	.st10{fill:url(#SVGID_11_);}
	.st11{fill:url(#SVGID_12_);}
	.st12{fill:url(#SVGID_13_);}
	.st13{fill:url(#SVGID_14_);}
	.st14{fill:url(#SVGID_15_);}
	.st15{fill:url(#SVGID_16_);}
	.st16{fill:url(#SVGID_17_);}
	.st17{fill:url(#SVGID_18_);}
	.st18{fill:url(#SVGID_19_);}
</style>
<g>
	
		<linearGradient id="SVGID_1_" gradientUnits="userSpaceOnUse" x1="396.4685" y1="539.225" x2="675.2502" y2="538.7668" gradientTransform="matrix(1 7.852941e-03 -7.852941e-03 1 4.1209 -3.0469)">
		<stop  offset="0.0161" style="stop-color:#D40000"/>
		<stop  offset="1" style="stop-color:#FFCB15"/>
	</linearGradient>
	<path class="st0" d="M675.12,540.29c-0.63,80.37-68.2,145-150.92,144.35c-54.83-0.43-102.55-29.44-128.32-72.35
		c12.53-3.33,23.74-9.73,32.74-18.33c5.45-5.22,10.09-11.24,13.7-17.89c4.87-8.95,7.88-19.01,8.5-29.7
		c0.01,0.09,0.02,0.18,0.03,0.27c0.05,0.47,0.1,0.94,0.17,1.4c0.07,0.56,0.14,1.12,0.23,1.67c0.25,1.66,0.55,3.3,0.92,4.92
		c0.07,0.28,0.13,0.57,0.2,0.86c0.07,0.31,0.14,0.62,0.22,0.93c0.15,0.57,0.3,1.15,0.46,1.71c0.16,0.56,0.32,1.13,0.49,1.68
		c0.01,0.02,0.02,0.05,0.03,0.07c0.16,0.54,0.33,1.09,0.52,1.62c0.18,0.54,0.36,1.07,0.56,1.61c0.01,0.05,0.03,0.09,0.05,0.13
		c0.18,0.5,0.36,0.99,0.56,1.49c0.02,0.07,0.04,0.13,0.07,0.19c0.19,0.48,0.38,0.96,0.59,1.44c0.01,0.05,0.03,0.1,0.06,0.15
		c0.19,0.47,0.39,0.92,0.6,1.38c0.03,0.08,0.06,0.15,0.09,0.21c0.23,0.51,0.46,1.02,0.71,1.52c0.17,0.36,0.34,0.72,0.52,1.07
		c1.19,2.4,2.5,4.71,3.95,6.94c0.22,0.35,0.45,0.71,0.69,1.06c0.26,0.39,0.52,0.78,0.8,1.17c0.26,0.37,0.51,0.74,0.79,1.1
		c0.55,0.77,1.13,1.53,1.72,2.28c0.26,0.33,0.52,0.66,0.8,1c0.79,0.99,1.62,1.94,2.47,2.88c0.27,0.29,0.53,0.59,0.8,0.87
		c0.84,0.92,1.72,1.81,2.63,2.67c0.4,0.39,0.8,0.77,1.21,1.14c3,2.79,6.24,5.33,9.69,7.59c0.49,0.32,0.98,0.64,1.48,0.95
		c0.44,0.28,0.87,0.54,1.32,0.81c0.6,0.36,1.21,0.72,1.83,1.06c0.47,0.26,0.94,0.52,1.43,0.78c1.03,0.55,2.1,1.08,3.16,1.59
		c1.02,0.48,2.06,0.95,3.11,1.39c0.08,0.03,0.17,0.07,0.26,0.11c0.95,0.39,1.9,0.76,2.87,1.12c0.27,0.1,0.55,0.2,0.83,0.3
		c0.41,0.14,0.82,0.28,1.22,0.42c0.46,0.16,0.93,0.31,1.4,0.46c0.35,0.12,0.71,0.22,1.07,0.32c0.33,0.11,0.66,0.2,1,0.3
		c0.53,0.15,1.06,0.29,1.59,0.43c0.45,0.12,0.9,0.23,1.36,0.34c0.47,0.11,0.94,0.22,1.42,0.32c0.06,0.02,0.12,0.03,0.18,0.04
		c0.36,0.08,0.73,0.16,1.09,0.22c0.48,0.11,0.97,0.2,1.46,0.28c0.4,0.08,0.81,0.15,1.22,0.21c0.33,0.06,0.67,0.11,1.01,0.16
		c0.2,0.03,0.4,0.06,0.6,0.08c0.39,0.06,0.77,0.11,1.16,0.16c2.34,0.3,4.72,0.49,7.13,0.58c0.72,0.03,1.45,0.04,2.18,0.05
		c0.73,0.01,1.46,0,2.18-0.01c61.24-0.63,110.87-48.82,111.34-108.57c0.41-52.39-37.11-96.48-87.62-107.63
		C621.8,407.47,675.69,467.92,675.12,540.29z"/>
</g>
<g>
	<path d="M451.28,515.81c0.49-1.08,1.02-2.13,1.58-3.18C452.31,513.67,451.78,514.73,451.28,515.81z"/>
</g>
<g>
	<path d="M452.99,512.37c0.78-1.46,1.6-2.9,2.48-4.3C454.6,509.47,453.77,510.91,452.99,512.37z"/>
</g>
<g>
	<path d="M460.64,500.83c0.73-0.92,1.5-1.81,2.29-2.7C462.15,499.01,461.38,499.91,460.64,500.83z"/>
</g>
<g>
	<path d="M467.89,493.08c0.87-0.81,1.76-1.59,2.66-2.35C469.64,491.49,468.76,492.28,467.89,493.08z"/>
</g>
<g>
	<path d="M470.59,490.68c1.35-1.14,2.73-2.21,4.15-3.24C473.32,488.48,471.93,489.56,470.59,490.68z"/>
</g>
<linearGradient id="SVGID_2_" gradientUnits="userSpaceOnUse" x1="373.4578" y1="438.1808" x2="638.2885" y2="438.1808">
	<stop  offset="4.019733e-03" style="stop-color:#FFCB15"/>
	<stop  offset="1" style="stop-color:#D40000"/>
</linearGradient>
<path class="st1" d="M638.29,502.54c0,59.75-49.26,108.32-110.49,109.44c40.35-1.12,72.71-33.26,72.71-72.74
	c0-40.19-33.53-72.77-74.89-72.77c-1.5,0-2.99,0.04-4.46,0.14c-0.41,0.01-0.81,0.04-1.21,0.07c-1.11,0.08-2.21,0.18-3.3,0.32
	c-0.39,0.04-0.78,0.09-1.17,0.14c-0.33,0.05-0.65,0.09-0.97,0.14c-0.24,0.03-0.48,0.07-0.72,0.11c-0.37,0.06-0.74,0.12-1.11,0.18
	c-0.22,0.03-0.45,0.07-0.67,0.12c-0.34,0.06-0.68,0.12-1.01,0.18c-0.32,0.06-0.64,0.13-0.95,0.18c-0.5,0.11-1,0.21-1.5,0.33
	c-0.42,0.09-0.84,0.18-1.26,0.29c-0.74,0.17-1.47,0.37-2.19,0.57c-0.44,0.12-0.88,0.24-1.31,0.38c-0.75,0.21-1.48,0.44-2.21,0.68
	c-0.46,0.16-0.91,0.3-1.36,0.47c-0.7,0.24-1.4,0.49-2.09,0.76c-0.57,0.21-1.13,0.44-1.69,0.68c-0.56,0.22-1.12,0.46-1.67,0.71
	c-0.55,0.23-1.11,0.49-1.65,0.75c-0.55,0.24-1.09,0.5-1.63,0.79c-0.54,0.26-1.08,0.53-1.61,0.82c-0.52,0.26-1.04,0.54-1.55,0.84
	c-0.03,0.01-0.05,0.02-0.08,0.04c-0.51,0.28-1.01,0.56-1.51,0.86c-0.51,0.3-1.03,0.61-1.53,0.93c-0.48,0.29-0.96,0.59-1.43,0.91
	c-0.05,0.02-0.09,0.05-0.13,0.09c-0.48,0.3-0.96,0.62-1.43,0.96c-0.49,0.33-0.98,0.67-1.46,1.03c-1.43,1.03-2.81,2.11-4.15,3.24
	c-0.02,0.02-0.03,0.04-0.05,0.05c-0.9,0.76-1.79,1.53-2.66,2.35c-0.44,0.39-0.87,0.81-1.29,1.22c-0.44,0.41-0.86,0.82-1.26,1.25
	c-0.42,0.42-0.83,0.84-1.22,1.27c-0.41,0.44-0.8,0.87-1.2,1.31c-0.79,0.88-1.56,1.78-2.29,2.7c-0.38,0.46-0.75,0.92-1.1,1.39
	c-0.37,0.47-0.72,0.94-1.06,1.42c-0.34,0.45-0.67,0.9-0.98,1.37c-0.07,0.1-0.15,0.2-0.22,0.31c-0.62,0.88-1.21,1.79-1.78,2.71
	c-0.01,0.02-0.02,0.04-0.04,0.06c-0.88,1.4-1.7,2.83-2.48,4.3c-0.04,0.08-0.09,0.16-0.13,0.25c-0.56,1.05-1.09,2.11-1.58,3.18
	c-0.26,0.53-0.5,1.08-0.73,1.62c-0.21,0.46-0.4,0.92-0.59,1.39c-0.08,0.17-0.15,0.36-0.22,0.53c-0.16,0.41-0.32,0.82-0.48,1.22
	c-0.04,0.1-0.07,0.19-0.11,0.29c-0.16,0.45-0.33,0.89-0.49,1.35c-0.24,0.69-0.47,1.39-0.7,2.09c-0.16,0.5-0.32,1.02-0.46,1.53
	c-0.12,0.4-0.24,0.81-0.34,1.21c-0.08,0.28-0.16,0.55-0.23,0.84c-0.33,1.25-0.62,2.52-0.88,3.8c-0.19,0.93-0.36,1.88-0.51,2.83
	c-0.09,0.56-0.17,1.13-0.25,1.69c-0.05,0.37-0.1,0.74-0.14,1.12c-0.03,0.19-0.05,0.4-0.07,0.59v0.04c-0.03,0.21-0.05,0.43-0.07,0.64
	c-0.05,0.51-0.1,1.04-0.14,1.55c-0.05,0.61-0.09,1.23-0.12,1.85c-0.07,1.24-0.1,2.48-0.1,3.74c0,0.66,0.01,1.32,0.03,1.98
	c0.02,0.66,0.04,1.32,0.08,1.97c0.05,0.84,0.11,1.69,0.19,2.52c0.03,0.42,0.07,0.83,0.12,1.24c0,0.04,0,0.07,0.01,0.11
	c0,0.01,0,0.01,0,0.02c-0.54,10.69-3.46,20.78-8.27,29.77c-3.55,6.67-8.15,12.74-13.56,18c-8.93,8.67-20.09,15.16-32.59,18.59
	c-11.9-19.48-19.27-41.9-20.65-65.87c-0.02-4.99-0.03-10.26-0.05-15.85c-0.12-54-0.32-137.23-0.62-265.5l-1.85,0.87
	c-0.04-0.5-0.1,0.04-0.12-4.13c0.42,0,0.84-0.03,1.26-0.03c41.36,0,74.89,32.58,74.89,72.77l0.62,77.78
	c88.85,99.83,14.3,18.81,0.06,7.66c14.24-12.45,31.74-21.41,51.13-25.54c7.88-1.24,15.97-1.89,24.2-1.89
	c8.24,0,16.33,0.65,24.2,1.89C600.42,406.35,638.29,450.15,638.29,502.54z"/>
<path d="M444.15,419.98"/>
<linearGradient id="SVGID_3_" gradientUnits="userSpaceOnUse" x1="543.1974" y1="364.8633" x2="543.1974" y2="364.8633">
	<stop  offset="4.019733e-03" style="stop-color:#FFCB15"/>
	<stop  offset="1" style="stop-color:#D40000"/>
</linearGradient>
<path class="st2" d="M543.2,364.86"/>
<linearGradient id="SVGID_4_" gradientUnits="userSpaceOnUse" x1="444.1527" y1="419.9805" x2="444.1527" y2="419.9805">
	<stop  offset="4.019733e-03" style="stop-color:#FFCB15"/>
	<stop  offset="1" style="stop-color:#D40000"/>
</linearGradient>
<path class="st3" d="M444.15,419.98"/>
<linearGradient id="SVGID_5_" gradientUnits="userSpaceOnUse" x1="989.6506" y1="546.4245" x2="1289.6506" y2="546.5916">
	<stop  offset="0" style="stop-color:#D40035"/>
	<stop  offset="1" style="stop-color:#FFCB15"/>
</linearGradient>
<path class="st4" d="M1139.65,400.62c-3.63,0-7.22,0.13-10.78,0.38c-0.26,0.01-0.51,0.03-0.76,0.05c-3.81,0.28-7.58,0.7-11.3,1.25
	c-0.1,0-0.2,0.02-0.3,0.05c-71.86,10.82-126.86,71.24-126.86,144.16c0,80.57,67.16,145.89,150,145.89s150-65.32,150-145.89
	S1222.49,400.62,1139.65,400.62z M1139.65,468.52c44.42,0,80.42,32.71,80.42,73.06c0,40.35-36,73.06-80.42,73.06
	c-44.42,0-80.42-32.71-80.42-73.06C1059.23,501.23,1095.23,468.52,1139.65,468.52z"/>
<linearGradient id="SVGID_6_" gradientUnits="userSpaceOnUse" x1="1029.8242" y1="509.388" x2="1246.8843" y2="509.388">
	<stop  offset="0" style="stop-color:#FFCB15"/>
	<stop  offset="1" style="stop-color:#D40035"/>
</linearGradient>
<path class="st5" d="M1138.35,400.86c-1.87,0-3.74,0.05-5.58,0.14c-0.26,0.01-0.51,0.03-0.76,0.05c-3.82,0.21-7.59,0.63-11.3,1.25
	c-0.1,0-0.2,0.02-0.3,0.05c-51.4,8.54-90.59,53.21-90.59,107.04c0,59.94,48.59,108.53,108.53,108.53
	c59.93,0,108.53-48.59,108.53-108.53S1198.28,400.86,1138.35,400.86z M1143.55,614.64c-44.42,0-80.42-32.71-80.42-73.06
	c0-40.35,36-73.06,80.42-73.06c44.42,0,80.42,32.71,80.42,73.06C1223.97,581.93,1187.97,614.64,1143.55,614.64z"/>
<linearGradient id="SVGID_7_" gradientUnits="userSpaceOnUse" x1="681.3253" y1="547.8577" x2="981.3253" y2="548.0249">
	<stop  offset="0" style="stop-color:#D40035"/>
	<stop  offset="1" style="stop-color:#FFCB15"/>
</linearGradient>
<path class="st6" d="M831.33,402.05c-3.63,0-7.22,0.13-10.78,0.38c-0.26,0.01-0.51,0.03-0.76,0.05c-3.81,0.28-7.58,0.7-11.3,1.25
	c-0.1,0-0.2,0.02-0.3,0.05c-71.86,10.82-126.86,71.24-126.86,144.16c0,80.57,67.16,145.89,150,145.89s150-65.32,150-145.89
	S914.17,402.05,831.33,402.05z M831.33,469.95c44.42,0,80.42,32.71,80.42,73.06s-36,73.06-80.42,73.06s-80.42-32.71-80.42-73.06
	S786.91,469.95,831.33,469.95z"/>
<linearGradient id="SVGID_8_" gradientUnits="userSpaceOnUse" x1="713.9929" y1="516.0261" x2="931.053" y2="516.0261">
	<stop  offset="0" style="stop-color:#FFCB15"/>
	<stop  offset="1" style="stop-color:#D40035"/>
</linearGradient>
<path class="st7" d="M822.52,407.5c-1.87,0-3.74,0.05-5.58,0.14c-0.26,0.01-0.51,0.03-0.76,0.05c-3.82,0.21-7.59,0.63-11.3,1.25
	c-0.1,0-0.2,0.02-0.3,0.05c-51.4,8.54-90.59,53.21-90.59,107.04c0,59.94,48.59,108.53,108.53,108.53
	c59.93,0,108.53-48.59,108.53-108.53S882.45,407.5,822.52,407.5z M827.72,621.28c-44.42,0-80.42-32.71-80.42-73.06
	c0-40.35,36-73.06,80.42-73.06s80.42,32.71,80.42,73.06C908.14,588.57,872.14,621.28,827.72,621.28z"/>
<linearGradient id="SVGID_9_" gradientUnits="userSpaceOnUse" x1="1481.7186" y1="470.2739" x2="1509.2985" y2="470.2739">
	<stop  offset="0" style="stop-color:#D40035"/>
	<stop  offset="1" style="stop-color:#FFCB15"/>
</linearGradient>
<path class="st8" d="M1509.3,473.76l-0.47-0.1c-1.18-0.9-2.62-1.57-3.91-1.99c-1.54-0.5-1.62-0.93-3.56-1.68
	c-0.68-0.27-1.38-0.49-2.08-0.71c-0.61-0.26-1.23-0.5-1.88-0.7c-0.28-0.09-0.56-0.14-0.83-0.18c-0.28-0.1-0.57-0.2-0.85-0.31
	c-0.57-0.23-1.16-0.29-1.75-0.23c-0.36-0.1-0.72-0.2-1.09-0.28c-0.29-0.07-0.58-0.13-0.87-0.18c-0.3-0.05-0.59-0.1-0.89-0.14
	c-0.15-0.02-0.3-0.04-0.44-0.06c-0.15-0.02-0.3-0.04-0.44-0.05c-0.08-0.01-0.15-0.02-0.22-0.02c-0.14-0.02-0.28-0.03-0.42-0.04
	c-0.09-0.01-0.17-0.02-0.26-0.02c-0.3-0.03-0.59-0.05-0.89-0.06c-0.43-0.02-0.86-0.04-1.29-0.04c-1.73-0.04-3.48,0.01-5.2,0.02
	c-0.04,0.01-0.07,0.01-0.11,0.01h-0.07c-0.01,0-0.01,0-0.02,0c-0.01-0.01-0.03-0.01-0.04-0.01c1.33-0.14,2.68-0.2,4.05-0.2
	C1494.42,466.79,1502.48,469.35,1509.3,473.76z"/>
<linearGradient id="SVGID_10_" gradientUnits="userSpaceOnUse" x1="1311.0485" y1="534.4539" x2="1312.7086" y2="534.4539">
	<stop  offset="0" style="stop-color:#D40035"/>
	<stop  offset="1" style="stop-color:#FFCB15"/>
</linearGradient>
<path class="st9" d="M1312.71,513.69v41.53c-1.09-6.78-1.66-13.71-1.66-20.77C1311.05,527.4,1311.61,520.46,1312.71,513.69z"/>
<linearGradient id="SVGID_11_" gradientUnits="userSpaceOnUse" x1="1425.9786" y1="469.5189" x2="1440.6786" y2="469.5189">
	<stop  offset="0" style="stop-color:#D40035"/>
	<stop  offset="1" style="stop-color:#FFCB15"/>
</linearGradient>
<path class="st10" d="M1440.68,468.18c-4.99,0.66-9.89,1.56-14.7,2.68C1430.57,469.37,1435.52,468.44,1440.68,468.18z"/>
<linearGradient id="SVGID_12_" gradientUnits="userSpaceOnUse" x1="1312.7086" y1="529.2439" x2="1394.6886" y2="529.2439">
	<stop  offset="0" style="stop-color:#D40035"/>
	<stop  offset="1" style="stop-color:#FFCB15"/>
</linearGradient>
<path class="st11" d="M1394.69,421.9v214.7c0,22.63-18.35,40.98-40.99,40.98c-22.64,0-40.99-18.35-40.99-40.98V421.9
	c0-22.64,18.35-40.99,40.99-40.99c11.32,0,21.57,4.59,28.98,12.01c4.78,4.77,8.38,10.72,10.34,17.37
	C1394.11,413.97,1394.69,417.87,1394.69,421.9z"/>
<linearGradient id="SVGID_13_" gradientUnits="userSpaceOnUse" x1="1402.494" y1="483.0482" x2="1402.494" y2="483.0482">
	<stop  offset="0" style="stop-color:#D40035"/>
	<stop  offset="1" style="stop-color:#FFCB15"/>
</linearGradient>
<path class="st12" d="M1402.49,483.05"/>
<linearGradient id="SVGID_14_" gradientUnits="userSpaceOnUse" x1="1425.9786" y1="469.5189" x2="1440.6786" y2="469.5189">
	<stop  offset="0" style="stop-color:#D40035"/>
	<stop  offset="1" style="stop-color:#FFCB15"/>
</linearGradient>
<path class="st13" d="M1440.68,468.18c-4.99,0.66-9.89,1.56-14.7,2.68C1430.57,469.37,1435.52,468.44,1440.68,468.18z"/>
<linearGradient id="SVGID_15_" gradientUnits="userSpaceOnUse" x1="1440.6786" y1="467.4789" x2="1458.4186" y2="467.4789">
	<stop  offset="0" style="stop-color:#D40035"/>
	<stop  offset="1" style="stop-color:#FFCB15"/>
</linearGradient>
<path class="st14" d="M1458.42,466.81c-0.35-0.01-0.69,0.02-1.04,0.06c-0.18,0.02-1.49,0.15-1.49,0.16
	c-1.97,0.12-3.93,0.04-5.9,0.28c-0.39,0.05-0.76,0.14-1.13,0.25c-0.74,0.07-1.47,0.17-2.21,0.31c-0.7-0.11-1.41-0.08-2.11,0.11
	c-0.07,0.02-0.15,0.03-0.22,0.05c-0.05,0.02-0.11,0.04-0.16,0.06h-0.35c-1.05,0-2.09,0.03-3.13,0.09c5.8-0.78,11.7-1.26,17.69-1.4
	C1458.39,466.79,1458.4,466.8,1458.42,466.81z"/>
<linearGradient id="SVGID_16_" gradientUnits="userSpaceOnUse" x1="1425.9786" y1="469.5189" x2="1440.6786" y2="469.5189">
	<stop  offset="0" style="stop-color:#D40035"/>
	<stop  offset="1" style="stop-color:#FFCB15"/>
</linearGradient>
<path class="st15" d="M1440.68,468.18c-4.99,0.66-9.89,1.56-14.7,2.68C1430.57,469.37,1435.52,468.44,1440.68,468.18z"/>
<linearGradient id="SVGID_17_" gradientUnits="userSpaceOnUse" x1="1481.7186" y1="470.2739" x2="1509.2985" y2="470.2739">
	<stop  offset="0" style="stop-color:#D40035"/>
	<stop  offset="1" style="stop-color:#FFCB15"/>
</linearGradient>
<path class="st16" d="M1509.3,473.76l-0.47-0.1c-1.18-0.9-2.62-1.57-3.91-1.99c-1.54-0.5-1.62-0.93-3.56-1.68
	c-0.68-0.27-1.38-0.49-2.08-0.71c-0.61-0.26-1.23-0.5-1.88-0.7c-0.28-0.09-0.56-0.14-0.83-0.18c-0.28-0.1-0.57-0.2-0.85-0.31
	c-0.57-0.23-1.16-0.29-1.75-0.23c-0.36-0.1-0.72-0.2-1.09-0.28c-0.29-0.07-0.58-0.13-0.87-0.18c-0.3-0.05-0.59-0.1-0.89-0.14
	c-0.15-0.02-0.3-0.04-0.44-0.06c-0.15-0.02-0.3-0.04-0.44-0.05c-0.08-0.01-0.15-0.02-0.22-0.02c-0.14-0.02-0.28-0.03-0.42-0.04
	c-0.09-0.01-0.17-0.02-0.26-0.02c-0.3-0.03-0.59-0.05-0.89-0.06c-0.43-0.02-0.86-0.04-1.29-0.04c-1.73-0.04-3.48,0.01-5.2,0.02
	c-0.04,0.01-0.07,0.01-0.11,0.01h-0.07c-0.01,0-0.01,0-0.02,0c-0.01-0.01-0.03-0.01-0.04-0.01c1.33-0.14,2.68-0.2,4.05-0.2
	C1494.42,466.79,1502.48,469.35,1509.3,473.76z"/>
<linearGradient id="SVGID_18_" gradientUnits="userSpaceOnUse" x1="1393.0186" y1="538.3289" x2="1609.3885" y2="538.3289">
	<stop  offset="0" style="stop-color:#D40035"/>
	<stop  offset="1" style="stop-color:#FFCB15"/>
</linearGradient>
<path class="st17" d="M1609.39,513.69V640.5c0,22.64-18.35,40.99-40.99,40.99s-40.99-18.35-40.99-40.99V496.91
	c-3.37-9.64-9.81-17.77-18.1-23.14c0,0-0.01,0-0.01-0.01c-6.82-4.41-14.88-6.97-23.53-6.97c-1.37,0-2.72,0.06-4.05,0.2
	c-0.05,0-0.11,0-0.16,0.01c-0.48,0-0.96,0-1.43-0.01c-0.56-0.01-1.06,0.08-1.53,0.22c-0.19-0.02-0.4-0.03-0.61-0.03
	c-0.3,0-0.58,0.03-0.85,0.07c-0.01,0.01-0.03,0.01-0.04,0.01c-0.28,0-0.54,0.03-0.8,0.06c-4.59-0.39-9.24-0.59-13.95-0.59
	c-1.33,0-2.66,0.02-3.98,0.05c-5.99,0.14-11.89,0.62-17.69,1.4c-5.16,0.26-10.11,1.19-14.7,2.68
	c-17.53,5.68-30.04,19.49-30.61,35.75c-0.38,0.89-0.49,1.95-0.19,3.14c0.01,0.03,0.01,0.06,0.02,0.09
	c-0.04,0.29-0.06,0.58-0.05,0.87c-0.03,0.15-0.04,0.3-0.06,0.44c-0.13,0.45-0.2,0.91-0.2,1.39v0.29c-0.02,0.52,0.08,1.01,0.26,1.48
	v0.06c-0.16,0.69-0.2,1.41-0.11,2.12v0.17c-0.01,0.1,0.01,0.2,0.02,0.29c-0.07,0.44-0.09,0.89-0.05,1.34c-0.01,0.2-0.02,0.39,0,0.59
	c0,0.21-0.01,0.43,0.01,0.64c-0.03,0.26-0.05,0.53-0.04,0.79c-0.1,0.54-0.14,1.08-0.08,1.63v0.05c-0.07,0.33-0.11,0.67-0.12,1.02
	v0.09c-0.01,0.43,0.05,0.84,0.16,1.24c-0.11,0.73-0.09,1.49,0.08,2.21c-0.11-0.09-0.22-0.18-0.33-0.26V421.9
	c0-4.03-0.58-7.93-1.67-11.61c20.42-9.67,43.54-15.12,68.03-15.12c24.95,0,48.48,5.66,69.18,15.66
	C1571.95,431.01,1602.18,468.86,1609.39,513.69z"/>
<linearGradient id="SVGID_19_" gradientUnits="userSpaceOnUse" x1="1481.5585" y1="470.2739" x2="1509.2985" y2="470.2739">
	<stop  offset="0" style="stop-color:#D40035"/>
	<stop  offset="1" style="stop-color:#FFCB15"/>
</linearGradient>
<path class="st18" d="M1509.3,473.76l-0.47-0.1c-1.18-0.9-2.62-1.57-3.91-1.99c-1.54-0.5-1.62-0.93-3.56-1.68
	c-0.68-0.27-1.38-0.49-2.08-0.71c-0.61-0.26-1.23-0.5-1.88-0.7c-0.28-0.09-0.56-0.14-0.83-0.18c-0.28-0.1-0.57-0.2-0.85-0.31
	c-0.57-0.23-1.16-0.29-1.75-0.23c-0.36-0.1-0.72-0.2-1.09-0.28c-0.29-0.07-0.58-0.13-0.87-0.18c-0.3-0.05-0.59-0.1-0.89-0.14
	c-0.15-0.02-0.3-0.04-0.44-0.06c-0.15-0.02-0.3-0.04-0.44-0.05c-0.08-0.01-0.15-0.02-0.22-0.02c-0.14-0.02-0.28-0.03-0.42-0.04
	c-0.09-0.01-0.17-0.02-0.26-0.02c-0.3-0.03-0.59-0.05-0.89-0.06c-0.43-0.02-0.86-0.04-1.29-0.04c-1.73-0.04-3.48,0.01-5.2,0.02
	c-0.04,0.01-0.07,0.01-0.11,0.01h-0.07c-0.01,0-0.01,0-0.02,0h-0.2c0.05-0.01,0.11-0.01,0.16-0.01c1.33-0.14,2.68-0.2,4.05-0.2
	C1494.42,466.79,1502.48,469.35,1509.3,473.76z"/>
</svg>
